<?xml version="1.0" encoding="UTF-8" standalone="no"?>
<!-- Created with Inkscape (http://www.inkscape.org/) -->

<svg
   xmlns:dc="http://purl.org/dc/elements/1.1/"
   xmlns:cc="http://creativecommons.org/ns#"
   xmlns:rdf="http://www.w3.org/1999/02/22-rdf-syntax-ns#"
   xmlns:svg="http://www.w3.org/2000/svg"
   xmlns="http://www.w3.org/2000/svg"
   xmlns:sodipodi="http://sodipodi.sourceforge.net/DTD/sodipodi-0.dtd"
   xmlns:inkscape="http://www.inkscape.org/namespaces/inkscape"
   width="400"
   height="400"
   viewBox="0 0 105.83333 105.83334"
   version="1.1"
   id="svg8"
   inkscape:version="0.92.3 (2405546, 2018-03-11)"
   sodipodi:docname="mirror_z.svg">
  <defs
     id="defs2">
    <marker
       inkscape:stockid="Arrow1Lstart"
       orient="auto"
       refY="0.0"
       refX="0.0"
       id="Arrow1Lstart"
       style="overflow:visible"
       inkscape:isstock="true">
      <path
         id="path824"
         d="M 0.0,0.0 L 5.0,-5.0 L -12.5,0.0 L 5.0,5.0 L 0.0,0.0 z "
         style="fill-rule:evenodd;stroke:#000000;stroke-width:1pt;stroke-opacity:1;fill:#000000;fill-opacity:1"
         transform="scale(0.8) translate(12.5,0)" />
    </marker>
  </defs>
  <sodipodi:namedview
     id="base"
     pagecolor="#ffffff"
     bordercolor="#666666"
     borderopacity="1.0"
     inkscape:pageopacity="0.0"
     inkscape:pageshadow="2"
     inkscape:zoom="0.98994949"
     inkscape:cx="-139.2689"
     inkscape:cy="210.26748"
     inkscape:document-units="mm"
     inkscape:current-layer="layer2"
     showgrid="true"
     units="px"
     inkscape:window-width="1920"
     inkscape:window-height="1017"
     inkscape:window-x="-8"
     inkscape:window-y="-8"
     inkscape:window-maximized="1">
    <inkscape:grid
       type="xygrid"
       id="grid815" />
  </sodipodi:namedview>
  <metadata
     id="metadata5">
    <rdf:RDF>
      <cc:Work
         rdf:about="">
        <dc:format>image/svg+xml</dc:format>
        <dc:type
           rdf:resource="http://purl.org/dc/dcmitype/StillImage" />
        <dc:title></dc:title>
      </cc:Work>
    </rdf:RDF>
  </metadata>
  <g
     inkscape:label="Layer 1"
     inkscape:groupmode="layer"
     id="layer1"
     transform="translate(0,-191.16665)">
    <path
       style="fill:none;fill-opacity:1;fill-rule:evenodd;stroke:#000000;stroke-width:14.56752777;stroke-linecap:round;stroke-linejoin:round;stroke-miterlimit:4;stroke-dasharray:none;stroke-dashoffset:0;stroke-opacity:1;paint-order:markers fill stroke;marker-end:"
       d="M 361.88303 95.436908 A 192.71624 192.71624 0 0 1 392.71625 199.99999 L 392.71625 199.99999 A 192.71624 192.71624 0 0 1 200 392.71623 A 192.71624 192.71624 0 0 1 7.2837625 199.99999 A 192.71624 192.71624 0 0 1 200 7.2837438 A 192.71624 192.71624 0 0 1 307.38774 39.976788 "
       id="path822"
       transform="matrix(0.26458333,0,0,0.26458333,0,191.16665)" />
  </g>
  <g
     inkscape:groupmode="layer"
     id="layer2"
     inkscape:label="Layer 2">
    <path
       style="fill:none;stroke:#000000;stroke-width:0.26458332px;stroke-linecap:butt;stroke-linejoin:miter;stroke-opacity:1"
       d="m 52.916666,29.104166 c 0.755952,-1.259922 0.755952,-1.259922 0,0"
       id="path1109"
       inkscape:connector-curvature="0" />
    <path
       style="fill:none;stroke:#000000;stroke-width:3.81000304;stroke-linecap:round;stroke-linejoin:miter;stroke-miterlimit:4;stroke-dasharray:3.81000293, 11.43000878;stroke-dashoffset:0;stroke-opacity:1"
       d="M 37.33063,61.916928 68.513421,43.913535"
       id="path1111-8"
       inkscape:connector-curvature="0" />
    <path
       inkscape:connector-curvature="0"
       id="path1887"
       style="fill:none;stroke:#000000;stroke-width:2.95462108;stroke-linecap:round;stroke-linejoin:round;stroke-miterlimit:4;stroke-dasharray:none;stroke-opacity:1"
       d="M 41.839208,27.734815 48.080809,15.993414 M 58.652136,34.303489 48.080809,15.993414 33.432749,24.450482 27.191144,36.191885 M 52.410535,46.04489 58.652136,34.303489 M 37.762468,54.501956 27.191141,36.19188 41.839211,27.73482 52.41054,46.044899 Z" />
    <path
       inkscape:connector-curvature="0"
       id="path1887-8"
       style="fill:none;stroke:#000000;stroke-width:2.95471334;stroke-linecap:round;stroke-linejoin:round;stroke-miterlimit:4;stroke-dasharray:none;stroke-opacity:1"
       d="M 64.893022,77.557076 58.65241,89.298883 M 48.079814,70.986609 58.65241,89.298883 73.299622,80.842304 79.540234,69.100496 M 54.320426,59.244803 48.079814,70.986609 M 68.967642,50.788229 79.540238,69.100502 64.893019,77.55707 54.320421,59.244794 Z" />
  </g>
</svg>
