<?xml version="1.0" encoding="UTF-8" standalone="no"?>
<!-- Created with Inkscape (http://www.inkscape.org/) -->

<svg
   xmlns:dc="http://purl.org/dc/elements/1.1/"
   xmlns:cc="http://creativecommons.org/ns#"
   xmlns:rdf="http://www.w3.org/1999/02/22-rdf-syntax-ns#"
   xmlns:svg="http://www.w3.org/2000/svg"
   xmlns="http://www.w3.org/2000/svg"
   xmlns:sodipodi="http://sodipodi.sourceforge.net/DTD/sodipodi-0.dtd"
   xmlns:inkscape="http://www.inkscape.org/namespaces/inkscape"
   width="400"
   height="400"
   viewBox="0 0 105.83333 105.83334"
   version="1.1"
   id="svg8"
   sodipodi:docname="translate.svg"
   inkscape:version="0.92.3 (2405546, 2018-03-11)">
  <defs
     id="defs2">
    <marker
       inkscape:stockid="Arrow1Lstart"
       orient="auto"
       refY="0.0"
       refX="0.0"
       id="Arrow1Lstart"
       style="overflow:visible"
       inkscape:isstock="true">
      <path
         id="path824"
         d="M 0.0,0.0 L 5.0,-5.0 L -12.5,0.0 L 5.0,5.0 L 0.0,0.0 z "
         style="fill-rule:evenodd;stroke:#000000;stroke-width:1pt;stroke-opacity:1;fill:#000000;fill-opacity:1"
         transform="scale(0.8) translate(12.5,0)" />
    </marker>
  </defs>
  <sodipodi:namedview
     id="base"
     pagecolor="#ffffff"
     bordercolor="#666666"
     borderopacity="1.0"
     inkscape:pageopacity="0.0"
     inkscape:pageshadow="2"
     inkscape:zoom="0.98994949"
     inkscape:cx="15.339177"
     inkscape:cy="301.52031"
     inkscape:document-units="mm"
     inkscape:current-layer="layer2"
     showgrid="true"
     units="px"
     inkscape:window-width="1920"
     inkscape:window-height="1017"
     inkscape:window-x="-8"
     inkscape:window-y="-8"
     inkscape:window-maximized="1"
     inkscape:snap-global="true"
     inkscape:snap-nodes="true"
     inkscape:snap-others="false"
     inkscape:snap-to-guides="false"
     inkscape:snap-bbox="true">
    <inkscape:grid
       type="xygrid"
       id="grid815" />
  </sodipodi:namedview>
  <metadata
     id="metadata5">
    <rdf:RDF>
      <cc:Work
         rdf:about="">
        <dc:format>image/svg+xml</dc:format>
        <dc:type
           rdf:resource="http://purl.org/dc/dcmitype/StillImage" />
        <dc:title></dc:title>
      </cc:Work>
    </rdf:RDF>
  </metadata>
  <g
     inkscape:label="Layer 1"
     inkscape:groupmode="layer"
     id="layer1"
     transform="translate(0,-191.16665)">
    <path
       style="fill:none;fill-opacity:1;fill-rule:evenodd;stroke:#000000;stroke-width:14.56752777;stroke-linecap:round;stroke-linejoin:round;stroke-miterlimit:4;stroke-dasharray:none;stroke-dashoffset:0;stroke-opacity:1;paint-order:markers fill stroke;marker-end:"
       d="M 361.88303 95.436908 A 192.71624 192.71624 0 0 1 392.71625 199.99999 L 392.71625 199.99999 A 192.71624 192.71624 0 0 1 200 392.71623 A 192.71624 192.71624 0 0 1 7.2837625 199.99999 A 192.71624 192.71624 0 0 1 200 7.2837438 A 192.71624 192.71624 0 0 1 307.38774 39.976788 "
       id="path822"
       transform="matrix(0.26458333,0,0,0.26458333,0,191.16665)" />
  </g>
  <g
     inkscape:groupmode="layer"
     id="layer2"
     inkscape:label="Layer 2">
    <path
       id="path1211-6-7-0"
       style="fill:none;stroke:#000000;stroke-width:4;stroke-linecap:round;stroke-linejoin:round;stroke-miterlimit:4;stroke-dasharray:none;stroke-opacity:1"
       d="m 41.486329,57.459266 -2.500677,-4.061776 2.787534,-3.870541 m -0.286857,7.932317 -6.466835,-4.205204 6.753692,-3.727113 m 15.281869,15.187513 -4.061777,2.500677 -3.87054,-2.787534 m 7.932317,0.286857 -4.205205,6.466835 -3.727112,-6.753692 m 15.218534,-15.337581 2.500677,4.061777 -2.787534,3.87054 m 0.286857,-7.932317 6.466835,4.205205 -6.753692,3.727112 m -15.101551,-15.868309 3.96875,-2.645834 3.968751,2.645834 m -7.937501,0 3.96875,-6.614584 3.968751,6.614584 M 34.913274,53.26182 H 70.92006 M 52.916667,71.265212 V 35.258428"
       inkscape:connector-curvature="0"
       sodipodi:nodetypes="cccccccccccccccccccccccccccc" />
    <path
       id="path1211-3"
       style="fill:#000000;stroke:#000000;stroke-width:4;stroke-linecap:round;stroke-linejoin:round;stroke-miterlimit:4;stroke-dasharray:none;stroke-opacity:1"
       d="M 93.135879,28.088235 95.25,23.8125 l 4.75996,0.306984 m -6.874081,3.968751 0.129746,-7.712773 6.744335,3.744022"
       inkscape:connector-curvature="0" />
    <path
       id="path1211-3-5"
       style="fill:#000000;stroke:#000000;stroke-width:4;stroke-linecap:round;stroke-linejoin:round;stroke-miterlimit:4;stroke-dasharray:none;stroke-opacity:1"
       d="m 84.333765,7.0785645 -0.91062,4.6821165 -4.672194,0.960243 m 5.582814,-5.6423595 1.910561,7.4735185 -7.493375,-1.831159"
       inkscape:connector-curvature="0" />
  </g>
</svg>
